<?xml version="1.0" encoding="utf-8"?>
<!-- Generator: Adobe Illustrator 27.5.0, SVG Export Plug-In . SVG Version: 6.00 Build 0)  -->
<svg version="1.1" xmlns="http://www.w3.org/2000/svg" xmlns:xlink="http://www.w3.org/1999/xlink" x="0px" y="0px"
	 viewBox="0 0 2200 2200" style="enable-background:new 0 0 2200 2200;" xml:space="preserve">

<g id="Objects">
	<path d="M435.404,958.921c0-14.986,12.193-27.178,27.179-27.178c14.986,0,27.178,12.192,27.178,27.178
		s-12.192,27.178-27.178,27.178C447.597,986.098,435.404,973.906,435.404,958.921z M333.744,1118.099
		c7.186,0,14.765-0.667,22.736-2.127c32.175-5.893,57.26-25.76,74.558-59.047c11.849-22.802,17.288-46.934,19.737-62.453
		c3.715,1.237,7.683,1.917,11.808,1.917c4.125,0,8.092-0.68,11.807-1.917c2.449,15.519,7.887,39.649,19.736,62.453
		c17.298,33.288,42.383,53.154,74.558,59.047c7.974,1.462,15.547,2.128,22.736,2.128c51.857,0,83.488-34.663,97.753-55.386
		c4.761,3.814,10.467,6.489,16.708,7.616c-16.588,45.164-54.191,127.643-61.91,144.477c-0.285-0.002-0.584-0.004-0.899-0.006
		c-2.727-0.017-6.714-0.031-11.784-0.043c-10.125-0.024-24.571-0.039-41.895-0.047c-34.643-0.016-80.799-0.006-126.943,0.017
		c-78.854,0.037-157.665,0.107-178.943,0.126h-2.29c-7.67-16.725-45.327-99.312-61.94-144.522
		c6.244-1.126,11.954-3.801,16.717-7.617C250.258,1083.437,281.882,1118.099,333.744,1118.099z M185.433,1033.467
		c0-14.986,12.192-27.178,27.178-27.178c14.986,0,27.178,12.192,27.178,27.178c0,14.986-12.192,27.178-27.178,27.178
		c-0.029,0-0.057-0.002-0.085-0.002c-0.03-0.002-0.061-0.001-0.091-0.002C197.53,1060.545,185.433,1048.394,185.433,1033.467z
		 M642.096,1262.374c0,3.245-2.64,5.884-5.884,5.884H288.955c-3.245,0-5.884-2.64-5.884-5.884v-37.23c0.119,0,0.236,0,0.355,0
		h358.67V1262.374z M712.692,1060.642c-0.016,0.001-0.033,0-0.05,0.001c-0.029,0-0.057,0.002-0.086,0.002
		c-14.986,0-27.179-12.192-27.179-27.178c0-14.986,12.193-27.178,27.179-27.178s27.178,12.192,27.178,27.178
		C739.734,1048.408,727.615,1060.568,712.692,1060.642z"/>
	


	

	
</g>
</svg>
